<?xml version="1.0" encoding="UTF-8"?>
<svg version="1.1" xmlns="http://www.w3.org/2000/svg" width="16" height="16">
<path d="M0 0 C5.28 0 10.56 0 16 0 C16 5.28 16 10.56 16 16 C10.72 16 5.44 16 0 16 C0 10.72 0 5.44 0 0 Z " fill="#A8DABC" transform="translate(0,0)"/>
<path d="M0 0 C2.64 0 5.28 0 8 0 C8 5.28 8 10.56 8 16 C7.01 16 6.02 16 5 16 C5 14.35 5 12.7 5 11 C3.68 10.67 2.36 10.34 1 10 C1.33 9.67 1.66 9.34 2 9 C2.04080783 7.00041636 2.04254356 4.99954746 2 3 C1.01 3.495 1.01 3.495 0 4 C0 2.68 0 1.36 0 0 Z " fill="#FCFEFC" transform="translate(8,0)"/>
<path d="M0 0 C1.98 0 3.96 0 6 0 C5.98839844 0.62648437 5.97679687 1.25296875 5.96484375 1.8984375 C5.95582031 2.71570313 5.94679688 3.53296875 5.9375 4.375 C5.92589844 5.18710938 5.91429687 5.99921875 5.90234375 6.8359375 C5.85533666 9.04937142 5.85533666 9.04937142 7 11 C5.68 11 4.36 11 3 11 C3 12.65 3 14.3 3 16 C2.01 16 1.02 16 0 16 C0 10.72 0 5.44 0 0 Z " fill="#FEFEFE" transform="translate(0,0)"/>
<path d="M0 0 C5.53846154 -0.36923077 5.53846154 -0.36923077 7.875 1.5 C8.24625 1.995 8.6175 2.49 9 3 C6.04335481 4.4783226 3.25770263 4.06032783 0 4 C0 2.68 0 1.36 0 0 Z " fill="#8BAFA3" transform="translate(3,11)"/>
</svg>
